<svg xmlns="http://www.w3.org/2000/svg" width="48" height="48" viewBox="0 0 48 48">
  <g>
    <circle cx="24" cy="24" r="24" fill="#181717"/>
    <path fill="#fff" fill-rule="evenodd" clip-rule="evenodd" d="M24 11c-7.18 0-13 5.82-13 13 0 5.74 3.71 10.6 8.84 12.32.65.12.89-.28.89-.62 0-.31-.01-1.12-.02-2.19-3.6.78-4.36-1.73-4.36-1.73-.59-1.51-1.44-1.92-1.44-1.92-1.18-.81.09-.79.09-.79 1.3.09 1.98 1.34 1.98 1.34 1.16 1.99 3.04 1.42 3.78 1.09.12-.84.46-1.42.84-1.75-2.87-.33-5.89-1.44-5.89-6.41 0-1.42.51-2.58 1.34-3.48-.13-.33-.58-1.67.13-3.48 0 0 1.09-.35 3.57 1.33a12.5 12.5 0 013.25-.44c1.1.01 2.21.15 3.25.44 2.47-1.68 3.56-1.33 3.56-1.33.71 1.81.26 3.15.13 3.48.83.9 1.34 2.06 1.34 3.48 0 4.98-3.02 6.08-5.9 6.41.47.41.9 1.23.9 2.48 0 1.79-.02 3.23-.02 3.67 0 .34.23.74.9.62C33.29 34.6 37 29.74 37 24c0-7.18-5.82-13-13-13z"/>
  </g>
</svg>