<svg xmlns="http://www.w3.org/2000/svg" width="48" height="48" viewBox="0 0 48 48">
  <g>
    <path fill="#4285F4" d="M43.611 20.083H42V20H24v8h11.303C34.418 32.042 29.661 35 24 35c-6.075 0-11-4.925-11-11s4.925-11 11-11c2.517 0 4.824.868 6.659 2.3l6.43-6.43C33.748 6.099 29.166 4 24 4 12.954 4 4 12.954 4 24s8.954 20 20 20c9.912 0 19.091-7.192 19.091-20 0-1.341-.139-2.647-.38-3.917z"/>
    <path fill="#34A853" d="M6.306 14.691l6.585 4.829C14.982 16.137 19.14 13 24 13c2.517 0 4.824.868 6.659 2.3l6.43-6.43C33.748 6.099 29.166 4 24 4c-7.125 0-13.42 4.146-16.694 10.691z"/>
    <path fill="#FBBC05" d="M24 44c5.661 0 10.418-2.042 13.303-5.583l-6.136-5.029C29.356 34.725 26.842 36 24 36c-5.609 0-10.329-3.792-12.016-8.969l-6.59 5.088C8.584 39.813 15.788 44 24 44z"/>
    <path fill="#EA4335" d="M43.611 20.083H42V20H24v8h11.303C34.88 32.063 29.661 35 24 35c-5.609 0-10.329-3.792-12.016-8.969l-6.59 5.088C8.584 39.813 15.788 44 24 44c9.912 0 19.091-7.192 19.091-20 0-1.341-.139-2.647-.38-3.917z"/>
  </g>
</svg>